<?xml version="1.0" encoding="UTF-8"?>
<svg width="64" height="64" viewBox="0 0 64 64" fill="none" xmlns="http://www.w3.org/2000/svg">
  <defs>
    <radialGradient id="bgGradient" cx="50%" cy="50%" r="50%">
      <stop offset="0%" stop-color="#fef9c3"/>
      <stop offset="100%" stop-color="#bbf7d0"/>
    </radialGradient>
    <linearGradient id="plantGradient" x1="0" y1="0" x2="0" y2="1">
      <stop offset="0%" stop-color="#34d399"/>
      <stop offset="100%" stop-color="#059669"/>
    </linearGradient>
    <radialGradient id="sunGradient" cx="50%" cy="50%" r="50%">
      <stop offset="0%" stop-color="#fde68a"/>
      <stop offset="100%" stop-color="#fbbf24"/>
    </radialGradient>
    <linearGradient id="stemGradient" x1="0" y1="0" x2="0" y2="1">
      <stop offset="0%" stop-color="#4ade80"/>
      <stop offset="100%" stop-color="#166534"/>
    </linearGradient>
  </defs>
  <!-- Background -->
  <circle cx="32" cy="32" r="32" fill="url(#bgGradient)"/>
  <!-- Sun -->
  <circle cx="48" cy="16" r="10" fill="url(#sunGradient)" opacity="0.85"/>
  <!-- Sparkles -->
  <g opacity="0.7">
    <circle cx="54" cy="10" r="1.5" fill="#fffbe6"/>
    <circle cx="42" cy="8" r="1" fill="#fffbe6"/>
    <circle cx="56" cy="22" r="1" fill="#fffbe6"/>
    <circle cx="50" cy="28" r="1.2" fill="#fffbe6"/>
    <circle cx="38" cy="18" r="0.8" fill="#fffbe6"/>
  </g>
  <!-- Plant Leaves -->
  <ellipse cx="32" cy="40" rx="13" ry="19" fill="url(#plantGradient)"/>
  <path d="M32 40 Q28 28 16 24 Q28 26 32 12 Q36 26 48 24 Q36 28 32 40 Z" fill="#059669" fill-opacity="0.7"/>
  <path d="M32 40 Q30 30 22 28 Q30 32 32 18 Q34 32 42 28 Q34 30 32 40 Z" fill="#34d399" fill-opacity="0.7"/>
  <!-- Plant Stem -->
  <rect x="29" y="40" width="6" height="14" rx="3" fill="url(#stemGradient)"/>
  <ellipse cx="32" cy="54" rx="4" ry="2" fill="#047857" fill-opacity="0.5"/>
  <!-- Techy Sparkle (AI) -->
  <g>
    <circle cx="20" cy="18" r="2" fill="#a7f3d0"/>
    <rect x="19.2" y="16.2" width="1.6" height="3.6" rx="0.8" fill="#34d399"/>
    <rect x="17.2" y="17.2" width="3.6" height="1.6" rx="0.8" fill="#34d399"/>
  </g>
</svg>